<svg version="1.1" xmlns="http://www.w3.org/2000/svg" xmlns:xlink="http://www.w3.org/1999/xlink" data-browser="Chrome[47.0]" preserveAspectRatio="xMidYMid meet" viewBox="0 0 439 126"><g id="logo__item--business" class="logo__item">
                <g class="logo__item__inner" transform="translate(119.6015625 93.78694136155536) scale(2.735798137903117 2.735798137903117) rotate(0 0 0)">
                    <text dy="" dominant-baseline="auto" alignment-baseline="auto" font-family="'Montserrat-Bold'" font-size="32px" fill="#009688" letter-spacing="0" font-weight="normal" font-style="normal">i18next</text>
                </g>
            </g><g id="logo__item--logo_0" class="logo__item">
    <g class="logo__item__inner" transform="translate(-33.15990560676016 -17) scale(1.584974472952939 1.584974472952939) rotate(0 0 0)">
        
<g>
	<path fill="#009688" d="M58.182,20.961v14.249l16.012,41.125c0,0,4.888,10.044-9.093,12.491H33.206c0,0-13.031-1.36-9.907-11.678   l16.827-41.938V20.961H58.182z"></path>
	<g>
		<g>
			<path fill="#004D40" d="M58.52,19.304H39.312c-1.556,0-2.821-1.384-2.821-3.094c0-1.711,1.265-3.095,2.821-3.095H58.52     c1.563,0,2.826,1.384,2.826,3.095C61.346,17.92,60.082,19.304,58.52,19.304z"></path>
		</g>
	</g>
	<path fill="#FFFFFF" d="M53.453,44.226c2.061,0,3.742,2.014,3.742,4.508c0,2.483-1.682,4.502-3.742,4.502   c-2.066,0-3.742-2.019-3.742-4.502C49.711,46.239,51.387,44.226,53.453,44.226z"></path>
	<ellipse fill="#FFFFFF" cx="41.966" cy="52.119" rx="3.154" ry="3.802"></ellipse>
	<path fill="#004D40" d="M59.606,34.265v-6.777c0,0,8.594-1.895,12.889,8.101C72.495,35.589,65.801,40.466,59.606,34.265z"></path>
	<path fill="#004D40" d="M38.557,34.265v-6.777c0,0-8.595-1.895-12.888,8.101C25.669,35.589,32.356,40.466,38.557,34.265z"></path>
	<path fill="#FFFFFF" d="M64.773,62.311c-13.975-4.335-25.724-2.008-31.467-0.249l-5.791,13.939   c-2.607,8.321,8.279,9.415,8.279,9.415h26.639c11.677-1.973,7.596-10.068,7.596-10.068L64.773,62.311z"></path>
	<path fill="#004D40" d="M44.633,67.49c0,1.503-2.02,2.726-4.508,2.726c-2.488,0-4.502-1.223-4.502-2.726   c0-1.509,2.014-2.727,4.502-2.727C42.614,64.764,44.633,65.981,44.633,67.49z"></path>
	<path fill="#004D40" d="M60.664,67.49c0,1.503-2.02,2.726-4.502,2.726c-2.495,0-4.508-1.223-4.508-2.726   c0-1.509,2.013-2.727,4.508-2.727C58.645,64.764,60.664,65.981,60.664,67.49z"></path>
</g>

    </g>
</g></svg>