<?xml version="1.0" encoding="UTF-8" standalone="no"?>
<svg
   xmlns:dc="http://purl.org/dc/elements/1.1/"
   xmlns:cc="http://creativecommons.org/ns#"
   xmlns:rdf="http://www.w3.org/1999/02/22-rdf-syntax-ns#"
   xmlns:svg="http://www.w3.org/2000/svg"
   xmlns="http://www.w3.org/2000/svg"
   viewBox="0 0 238.93333 74.666664"
   height="74.666664"
   width="238.93333"
   xml:space="preserve"
   id="svg2"
   version="1.1"><metadata
     id="metadata8"><rdf:RDF><cc:Work
         rdf:about=""><dc:format>image/svg+xml</dc:format><dc:type
           rdf:resource="http://purl.org/dc/dcmitype/StillImage" /></cc:Work></rdf:RDF></metadata><defs
     id="defs6" /><g
     transform="matrix(1.3333333,0,0,-1.3333333,0,74.666667)"
     id="g10"><g
       transform="scale(0.1)"
       id="g12"><path
         id="path14"
         style="fill:#00aeef;fill-opacity:1;fill-rule:nonzero;stroke:none"
         d="m 542.383,332.02 c -149.574,-18.547 -143.336,174.207 -57.731,164.57 -27.781,-28.348 19.274,-98.078 77.36,-28.973 82.273,97.887 166.828,83.047 209.293,57.567 C 571.52,567.672 645.453,344.801 542.383,332.02" /><path
         id="path16"
         style="fill:#a1cd3a;fill-opacity:1;fill-rule:nonzero;stroke:none"
         d="m 657.023,471.281 c -80.531,-125.496 114.282,-191.824 105.422,-98.847 -51.023,-41.672 -91.273,67.464 67.059,63.371 118.066,-3.051 164.41,92.437 184.256,123.621 C 846.512,403.52 730.621,585.969 657.023,471.281" /><path
         id="path18"
         style="fill:#000000;fill-opacity:1;fill-rule:nonzero;stroke:none"
         d="M 0.773438,303.648 145.344,44.7969 c 20.57,-37.14456 36,-45.714869 79.426,-45.714869 h 58.855 L 435.051,303.648 H 329.91 L 226.484,96.2227 115.629,303.648 Z m 468.558562,0 V -0.917969 H 571.613 V 303.648 Z m 170.852,0 V -0.917969 H 742.465 V 303.648 Z m 170.851,0 V -0.917969 H 913.316 V 193.363 L 1025.31,-0.917969 h 74.29 L 1207.03,195.078 V -0.917969 h 94.85 V 303.648 h -93.14 c -24.57,0 -41.71,-4 -49.14,-11.429 -6.29,-6.285 -21.14,-27.43 -27.43,-39.426 l -70.86,-131.43 -66.279,121.141 c -19.429,37.144 -19.429,37.144 -27.429,45.144 -11.426,10.856 -28.571,16 -52,16 z M 1448.16,-0.917969 1569.3,218.508 l 46.28,-88 h -85.14 l 33.14,-75.426 h 92 l 26.29,-55.999969 h 110.85 L 1663.01,247.078 c -10.86,21.141 -25.14,38.856 -36,46.856 -10.29,6.855 -24,9.714 -48.57,9.714 h -75.43 L 1336.16,-0.917969 h 112" /></g></g></svg>